# xmcd
#
# Track frame offsets:
#	150
#	19133
#	37970
#	56080
#	76595
#	98270
#
# Disc length: 1751 seconds
# Revision: 0
# Processed by: cddbd v1.5.2PL0 Copyright (c) Steve Scherf et al.
# Submitted via: dBpowerAMP V12.0
#
DISCID=3406d506
DTITLE=Ce Ce Peniston - Crazy Love
DYEAR=1992
DGENRE=R&B
TTITLE0=Crazy Love [LP Edit]
TTITLE1=Crazy Love [Radio Remix]
TTITLE2=Crazy Love [Hard Radio Version]
TTITLE3=Crazy Love [B. Boy Edit]
TTITLE4=Crazy Love [LP Version]
TTITLE5=Crazy Love [12" Remix]
EXTD=
EXTT0=
EXTT1=
EXTT2=
EXTT3=
EXTT4=
EXTT5=
PLAYORDER=
